<svg width="113" height="80" viewBox="0 0 113 80" fill="none" xmlns="http://www.w3.org/2000/svg">
    <path fill-rule="evenodd" clip-rule="evenodd" d="M60.9122 65.6748C67.0577 67.2873 73.9426 66.6386 79.0222 61.5887C84.0641 56.5762 85.4379 49.4238 83.7971 43.2433C82.1535 37.0526 77.456 31.7455 70.2893 30.5287C59.3809 28.6766 52.0898 32.744 48.2119 38.4651C44.3949 44.0962 43.8901 51.365 46.5853 55.833C49.2051 60.1744 54.7907 64.0686 60.9122 65.6748ZM71.8109 37.6332C68.9114 37.7754 60.2585 44.2384 64.8808 50.5528C69.4998 56.8704 75.5652 53.4256 77.5871 48.5428C79.6089 43.6632 77.7301 37.3456 71.8109 37.6332Z" fill="#02182E"/>
    <path fill-rule="evenodd" clip-rule="evenodd" d="M17.4382 51.967C12.286 50.3382 -1.1693 45.6635 0.0816751 41.621C1.27462 37.7723 12.7847 41.8117 17.9823 43.8572C19.4776 44.4453 21.1646 43.9057 22.0488 42.5743L24.1356 39.4397C24.9417 38.2279 24.6394 36.6089 23.4432 35.7752C19.159 32.7925 10.2818 25.8157 13.2658 21.0589C16.3402 16.1629 27.741 26.001 32.1122 29.773L32.1286 29.7872C33.2598 30.7664 34.8623 30.9506 36.1983 30.2752L38.9905 28.8598C40.4598 28.0745 41.1066 26.3295 40.4955 24.7881C38.4509 19.637 34.9826 6.66901 37.8301 5.10172C39.787 4.02259 41.9304 9.68096 44.0278 15.2179C45.9437 20.2759 47.8213 25.2325 49.4832 24.8592C51.3328 24.4423 54.073 23.7217 56.2346 23.1368C58.0939 22.6327 59.2706 20.8101 58.926 18.9261C57.8533 13.0642 56.1598 0.202762 60.9348 0.00240806C66.0739 -0.214103 66.6818 14.2275 66.7208 19.8471C66.7305 21.1171 67.6732 22.1738 68.9409 22.3515L76.0596 23.3404C77.2525 23.5052 78.3967 22.8265 78.8258 21.7084C80.5485 17.194 85.0635 6.33293 88.3856 6.95015C91.8214 7.58676 88.5448 19.9053 87.2609 24.3033C86.9943 25.2179 87.4039 26.1808 88.2393 26.6462L90.6967 28.0099C91.5223 28.4688 92.556 28.3136 93.1996 27.6253C95.7415 24.9076 101.953 18.6676 102.6 21.9185C103.413 26.0128 99.2423 33.1738 99.2423 33.1738C99.2423 33.1738 101.766 35.8556 104.202 38.9468C109.689 44.2321 112.638 49.4288 112.785 51.7652C112.827 52.3889 112.255 54.8577 107.939 59.272C107.592 59.6263 107.242 59.9861 106.888 60.3504L106.886 60.3525C98.4944 68.9801 87.6507 80.1291 64.2677 79.9989C39.8952 79.8631 16.9497 62.1092 16.9497 54.3956C16.9497 53.7217 17.1139 52.9008 17.4382 51.967ZM64.5862 27.0959C65.2591 27.07 65.9157 27.0571 66.5723 27.0571C93.5777 27.0571 107.545 48.133 107.828 52.586C107.828 52.608 107.829 52.634 107.83 52.6641L107.83 52.6675C107.848 53.1775 107.905 54.8356 104.711 57.9051C96.8282 65.4829 79.0186 76.0726 63.6988 75.5911C43.0644 74.8575 20.2002 58.6774 20.2002 54.3956C20.2002 50.0654 35.1006 28.201 64.5862 27.0959Z" fill="#02182E"/>
</svg>
