<?xml version="1.0" encoding="UTF-8" standalone="no"?>
<!-- Created with Inkscape (http://www.inkscape.org/) -->

<svg
   width="2698.7537"
   height="1552.4598"
   viewBox="0 0 2698.7537 1552.4598"
   version="1.1"
   id="svg5"
   xmlns="http://www.w3.org/2000/svg"
   xmlns:svg="http://www.w3.org/2000/svg">
  <defs
     id="defs2">
    <linearGradient
       id="linearGradient6513">
      <stop
         style="stop-color:#000000;stop-opacity:1;"
         offset="0"
         id="stop6511" />
    </linearGradient>
  </defs>
  <g
     id="layer1"
     transform="translate(40.130341,33.074257)">
    <rect
       style="fill:#52b9a0"
       id="rect184"
       width="2698.7537"
       height="1552.4597"
       x="-40.130341"
       y="-33.074257" />
  </g>
  <g
     id="layer2"
     transform="translate(40.130341,33.074257)">
    <g
       id="g3798"
       transform="matrix(18.711123,0,0,-18.711123,835.01972,311.98904)">
      <g
         id="g5750"
         transform="translate(-27.573029,3.8301659)">
        <path
           id="path4360"
           style="display:inline;fill:#52b9a0;fill-opacity:1;fill-rule:nonzero;stroke:none"
           d="m 4.9355469,-34.679688 c -1.0946407,-0.05881 -2.1940469,0.0013 -3.2792969,0.197266 -4.342,0.784 -8.3178438,3.913672 -9.5898438,8.138672 -0.6669999,2.212 -0.5945781,4.569906 -0.5175781,6.878906 0.088,2.589 0.1747188,5.180531 0.2617188,7.769532 0.06,1.7949995 0.1257031,3.6214057 0.7207031,5.3164058 C -6.33775,-3.1569062 -3.322,-0.789 0,0 c 3.972,0.943 6.811375,-0.46976563 10.359375,-1.7597656 3.298,-1.201 6.097594,-2.0010938 8.433594,-4.8710938 3.06,-3.7579996 3.05339,-7.8099846 2.65039,-12.3339846 -0.436,-4.909 -3.32064,-9.437937 -7.30664,-12.335937 -2.676,-1.9455 -5.9172502,-3.202469 -9.2011721,-3.378907 z"
           transform="translate(6.6565729,-1.0695299)" />
        <path
           id="path4372"
           style="display:inline;fill:none;fill-opacity:1;fill-rule:nonzero;stroke:#f9d973;stroke-width:0.224269;stroke-dasharray:none;stroke-dashoffset:0;stroke-opacity:1"
           d="m 5.2246094,-40.048828 c -1.4831001,-0.07968 -3.0023154,6.7e-4 -4.52343752,0.27539 -6.23942418,1.126603 -11.83092488,5.394336 -13.78320288,11.878907 -1.002264,3.325297 -0.819493,6.291223 -0.742188,8.609375 a 5.3771236,5.3771236 0 0 0 0,0.0039 c 0.08794,2.58711 0.174702,5.176118 0.261719,7.765625 0.06031,1.804276 0.06766,4.2007715 1.021484,6.9179688 1.847629,5.26353678 6.3355465,8.6493081 11.2988285,9.828125 5.7065237,1.3547965 10.2104626,-0.7634872 13.4394535,-1.9375 a 5.3771236,5.3771236 0 0 0 0.002,0 c 3.10017,-1.1289582 7.408862,-2.40759192 10.763672,-6.5292969 4.257228,-5.2283217 4.263652,-11.4036389 3.835937,-16.2050779 -0.595099,-6.700327 -4.356968,-12.469771 -9.5,-16.208985 -3.455281,-2.512051 -7.6134973,-4.158772 -12.0742186,-4.398437 z"
           transform="matrix(0.94718245,0,0,0.95928654,5.0145585,-2.4724473)" />
      </g>
      <g
         id="g3722"
         transform="matrix(1.1348106,0,0,1.1348106,56.626251,-14.772903)"
         style="fill:none;fill-opacity:1;stroke:#f9d973;stroke-width:0.187203;stroke-dasharray:none;stroke-opacity:1">
        <path
           d="m 0,0 c 29.452,-3.219 16.554,-41.611 1.122,-35.837 -7.382,3.01 -4.296,9.051 -6.365,13.568 C -15.409,-11.332 -13.73,-1.235 0,0"
           style="fill:none;fill-opacity:1;fill-rule:nonzero;stroke:#f9d973;stroke-width:0.187203;stroke-dasharray:none;stroke-opacity:1"
           id="path3724" />
      </g>
    </g>
  </g>
</svg>
