<svg width="69" height="81" viewBox="0 0 69 81" fill="none" xmlns="http://www.w3.org/2000/svg">
    <path d="M3.11273 27.9445C3.42757 27.8958 3.73754 27.8715 4.03939 27.8715C9.20828 27.8715 12.407 34.5821 15.2389 41.4566C15.5846 42.2956 15.9157 43.1947 16.2451 44.0873C17.347 47.0831 18.4895 50.1829 19.9696 50.1829C20.1627 50.1829 20.3672 50.1293 20.5766 50.0222C21.5471 49.5288 22.24 42.1934 22.2611 32.1851C22.2644 30.6807 22.2611 29.2428 22.2563 27.8747C22.227 16.2971 22.2124 9.92076 26.2258 9.38846C26.3524 9.37385 26.4758 9.36411 26.5975 9.36411C30.7585 9.36411 31.4483 19.0852 31.9611 26.3086L32.0536 27.6426C32.3279 31.6544 32.7871 38.3683 33.855 38.3959C34.4831 37.8084 36.6253 27.0876 36.7957 23.6909C36.807 23.4588 38.7058 0.558349 44.2398 0.558349C45.0139 0.584315 45.6615 1.36817 46.1792 1.99947L46.4356 2.30781C48.8212 5.89925 47.9157 16.3198 46.5849 27.0438C46.4356 28.2464 46.1857 29.7037 45.939 31.1448C45.5268 33.5499 44.9604 36.846 45.2882 37.1657C46.0542 36.7535 46.7813 33.7869 47.4239 31.1692C47.6998 30.0461 47.9773 28.9166 48.2662 27.9169C48.6314 26.6576 48.9705 25.4274 49.2967 24.2411C50.4376 20.0946 51.426 16.5145 52.8784 14.0461C53.1917 13.5122 53.4789 13.001 53.7483 12.519C54.9849 10.3167 55.8791 8.72307 57.3332 8.72307C57.4761 8.72307 57.6254 8.7393 57.8656 8.78961C58.4384 8.90321 59.3943 9.09309 59.9201 10.4401C60.4541 11.8066 59.8812 19.2215 57.4128 29.6047C56.3693 33.9946 54.464 42.0198 55.1148 43.3181C56.1761 42.5845 57.8461 38.4153 59.0778 35.3351C61.0107 30.5087 62.8348 25.95 65.029 25.059C65.1961 24.9908 65.3827 24.9551 65.584 24.9551C66.1017 24.9551 66.9407 25.1807 68.0134 26.2535C69.4594 27.7011 69.1235 32.891 67.176 39.1716L67.0787 39.4816C66.7119 40.6711 66.3289 41.911 65.9572 43.1996L65.842 43.5988C63.2 52.7389 55.1618 80.5583 34.0741 80.5583L33.5548 80.5535C23.4767 80.336 15.1415 69.7564 9.92397 60.9198C4.42889 51.6142 0.457691 41.1337 0.0422327 34.8385C-0.301819 29.5836 1.5223 28.1879 3.11273 27.9445Z" fill="#02182E"/>
</svg>
