<svg width="71" height="80" viewBox="0 0 71 80" fill="none" xmlns="http://www.w3.org/2000/svg">
    <path d="M37.6779 70.1914C36.0728 70.4597 25.5869 78.8202 15.1239 78.3525C4.65856 77.887 -0.223118 61.7964 0.00781813 52.0026C0.241041 42.2088 4.1944 41.0417 5.82239 43.3737C7.45038 45.7058 21.6335 55.0341 27.9123 54.3347C34.191 53.6353 32.3298 49.2027 27.4458 48.0379C22.5642 46.873 8.3787 41.2755 6.28655 36.8453C4.1944 32.4128 13.2627 21.9196 16.2854 19.122C19.3082 16.3245 20.0056 18.8882 19.7746 20.9863C19.5414 23.0868 26.2843 37.5447 32.563 37.0769C38.8395 36.6114 40.9339 29.6152 35.3526 26.8176C29.7712 24.0178 24.8895 19.5875 23.9589 15.6228C23.0283 11.6603 29.307 11.1926 32.563 9.09438C35.8167 6.99621 35.5789 1.92097e-06 39.3059 1.92097e-06C41.3981 1.92097e-06 49.5357 9.55988 51.3969 13.0591C53.2581 16.5561 56.0477 19.3559 53.9555 21.9196C51.8611 24.4856 46.9794 33.58 51.1637 33.8138C55.3503 34.0454 54.8838 26.5837 57.6757 26.1183C60.4652 25.6505 62.7906 33.8138 63.9521 35.4465C65.1159 37.0769 42.7928 51.5348 47.6768 52.0026C52.5585 52.4681 64.1853 39.409 65.3492 40.5762C66.5107 41.741 69.3002 54.8002 69.5335 57.8316C69.7667 60.8631 54.1865 64.8278 54.6529 66.926C55.1171 69.0265 61.3958 70.1914 64.6518 68.7926C67.9055 67.3938 68.1387 64.1284 69.7667 64.5939C71.3947 65.0617 69.3002 79.5196 56.5118 79.9851C43.7234 80.4529 40.4675 69.7259 37.6779 70.1914Z" fill="#02182E"/>
</svg>
