<svg width="117" height="81" viewBox="0 0 117 81" fill="none" xmlns="http://www.w3.org/2000/svg">
    <path d="M38.9912 73.4838C37.566 71.9717 30.9944 64.3505 28.8264 64.2147C26.6583 64.0788 24.7569 62.7491 23.5414 62.17C18.3879 59.7141 1.98911 60.6686 0.634986 53.0366C-0.722693 45.4011 8.9019 35.4492 20.2858 41.7192C23.0509 43.2456 29.7753 46.3555 31.6732 49.083C33.5711 51.8069 43.5831 65.784 45.2251 65.5766C47.3932 65.305 37.6371 41.04 33.5711 36.9505C29.5052 32.8611 16.49 28.4964 19.4719 21.9547C22.4538 15.4095 36.2794 15.4095 40.8891 23.8636C45.4988 32.3142 47.123 56.1716 48.4772 55.0814C49.8349 53.9911 52.273 22.4981 50.3751 15.9564C48.4772 9.41117 49.2911 -2.58548 59.5945 0.688933C69.8944 3.95977 53.6307 56.3075 56.0688 56.9902C58.5105 57.6694 69.3506 20.0459 75.8582 11.5917C77.6495 9.26461 81.687 8.45672 84.3952 7.09477C87.107 5.73281 100.705 4.62109 96.1879 15.6847C94.8124 19.0557 91.173 25.6331 88.8699 28.2247C86.5668 30.8164 81.7865 39.0989 79.1493 41.8193C74.0954 47.0383 63.1167 62.0341 65.5583 63.1244C67.0369 63.7857 80.5994 51.689 85.4117 50.5916C90.224 49.4905 99.6816 44.7791 107.032 46.4914C125.737 50.8525 112.725 68.3041 99.4399 68.8475C89.8117 69.2443 72.1513 67.7572 67.0013 71.0316C61.8514 74.3024 60.2023 77.2194 57.9667 78.1202C54.9173 79.3463 51.5977 79.2105 48.8859 80.0291C46.1741 80.8441 42.0406 76.7225 38.9912 73.4838Z" fill="#02182E"/>
</svg>
