<svg width="47" height="80" viewBox="0 0 47 80" fill="none" xmlns="http://www.w3.org/2000/svg">
    <path fill-rule="evenodd" clip-rule="evenodd" d="M13.4202 17.4071C12.5285 17.0493 10.8858 17.4509 10.0583 18.1137C9.11127 18.8747 8.53712 17.9191 7.92599 16.9019C7.7633 16.6311 7.5979 16.3559 7.42223 16.1076C6.58667 14.9267 5.09384 16.0988 4.48028 17.4216C4.11068 18.2184 3.09729 18.1049 2.18896 18.0031C1.58939 17.9359 1.03559 17.8738 0.742971 18.0821C0.00704623 18.6043 -0.777825 20.9362 1.56979 21.5915C2.84892 21.9492 2.98184 22.4996 3.11144 23.0363C3.21988 23.4853 3.32599 23.9247 4.09921 24.2336C5.09964 24.6343 5.62276 23.8712 6.05977 23.2337C6.3642 22.7896 6.62686 22.4064 6.97998 22.5201C7.35567 22.641 7.31774 23.013 7.26923 23.4888C7.20669 24.1021 7.12657 24.8878 7.89245 25.5301C9.25243 26.6707 10.747 25.4986 11.7993 24.6401C12.8499 23.7816 15.3985 27.0719 16.8389 29.2637C18.2793 31.4555 20.5341 35.7327 20.5341 35.7327C16.3513 36.2136 12.4487 37.128 10.1766 37.7546C6.14389 38.8654 4.22803 40.7138 1.98355 44.5876C-0.260933 48.4614 -0.280161 50.9703 1.30356 55.643C4.83286 66.0519 17.0342 68.4785 21.0669 67.5692C25.0996 66.6599 29.4837 68.284 30.2913 70.7089C31.0972 73.1355 37.9058 76.8673 39.923 76.8673C41.9402 76.8673 46.3768 80 46.3768 80C46.3768 80 45.2668 77.5734 42.5451 76.361C39.8216 75.1486 35.9899 72.7237 34.7803 71.005C33.5706 69.2862 33.3696 66.0519 36.4951 63.6271C39.6206 61.2023 43.8561 55.7446 44.2581 47.7658C44.6619 39.7887 36.8989 36.8453 30.1427 35.7327C28.5825 35.4762 26.8932 35.3867 25.168 35.4143C25.1707 35.2619 25.1666 34.9076 25.1452 34.1511C25.2503 33.5577 25.499 32.7444 26.0387 31.6889C27.3672 29.0924 28.7516 28.8629 30.1221 29.236C31.3749 29.5772 31.4679 28.9564 31.6989 27.4123C31.7206 27.2674 31.7435 27.1143 31.7688 26.9531C32.0624 25.0749 32.218 24.5248 33.7108 25.5427C35.2019 26.5607 37.6124 25.5672 37.0898 24.1761C36.5654 22.785 37.9341 21.0925 38.878 21.9563C39.8202 22.8183 41.9913 21.2327 41.5718 20.4022C41.154 19.57 39.364 18.3471 37.2314 18.7535C36.4177 18.9081 35.5767 19.2197 34.8583 19.486C33.6953 19.917 32.8534 20.229 32.9679 19.563C33.1549 18.4872 36.5287 16.4128 38.6543 16.6598C40.7799 16.9069 42.2902 15.9678 41.6539 14.6572C41.3795 14.0936 40.9729 13.844 40.6293 13.6331C40.1741 13.3537 39.8298 13.1424 40.051 12.3585C40.4373 10.9814 39.0546 9.16106 38.1771 9.32926C37.2978 9.4957 36.1878 10.4874 35.1005 11.6069C34.5732 12.1482 34.0094 11.6892 33.3992 11.1924C32.7492 10.6633 32.0466 10.0912 31.2793 10.6398C30.0061 11.55 30.1978 12.9454 30.3277 13.8911C30.3496 14.0503 30.3697 14.1968 30.3808 14.3261C30.4144 14.718 29.9166 14.8277 29.3266 14.9576C28.566 15.1252 27.6523 15.3265 27.5263 16.2096C27.4284 16.8997 27.7639 17.6159 28.0729 18.2756C28.4652 19.1131 28.8147 19.8592 28.18 20.3444C27.7855 20.645 27.2897 20.8238 26.8225 20.9924C25.9445 21.3092 25.1675 21.5895 25.3534 22.573C25.4745 23.214 25.7458 23.7794 25.9921 24.2926C26.3254 24.9871 26.6128 25.586 26.4197 26.1472C26.3442 26.3668 26.1623 26.5767 25.9196 26.8567C25.4555 27.392 24.7693 28.1838 24.1793 29.7904C23.9235 28.623 23.8016 27.4808 24.1405 26.585C24.5788 25.4229 23.899 25.0058 23.2389 24.6007C22.7039 24.2724 22.1818 23.952 22.2788 23.2491C22.4021 22.3641 22.354 21.6666 22.2983 20.8612C22.2554 20.2396 22.208 19.5536 22.2316 18.6675C22.2657 17.429 21.7767 17.0751 21.262 16.7026C20.9314 16.4633 20.5901 16.2164 20.37 15.7223C20.1038 15.1243 20.9134 14.3731 21.7725 13.576C22.7305 12.6871 23.75 11.7411 23.408 10.8867C23.0448 9.97735 22.4173 9.99061 21.8289 10.003C21.3698 10.0127 20.9345 10.022 20.6671 9.59191C20.4275 9.20726 20.4756 8.7591 20.5278 8.27268C20.6085 7.52061 20.6991 6.6771 19.7511 5.83552C18.8675 5.05098 17.7972 5.73133 16.8956 6.30448C16.2046 6.74379 15.6126 7.12011 15.2797 6.72556C14.905 6.28265 15.3022 5.70589 15.7625 5.0374C16.2473 4.33345 16.8021 3.52778 16.5994 2.66957C16.2753 1.29688 15.05 1.57154 13.9592 1.81607C13.7204 1.8696 13.488 1.92169 13.2729 1.95473C12.6773 2.04725 12.528 1.70846 12.3407 1.28319C12.1519 0.854745 11.9245 0.338518 11.163 0.0870463C10.2065 -0.230301 9.34335 0.379798 8.52952 0.955012C8.05384 1.29122 7.59502 1.61551 7.14428 1.73573C6.77636 1.83452 6.39366 1.86434 6.00969 1.89425C5.12031 1.96353 4.22413 2.03335 3.48913 2.96216C2.85444 3.76449 3.43387 4.61477 3.98938 5.42996C4.35338 5.96411 4.70712 6.4832 4.70227 6.96384C4.69679 7.50835 4.40211 7.74929 4.08132 8.01157C3.68577 8.33498 3.25054 8.69083 3.26888 9.68828C3.30209 11.4946 5.23018 11.5805 6.5919 11.2774C7.75976 11.0174 7.8656 11.7575 8.08157 13.2677C8.11742 13.5184 8.15631 13.7903 8.2036 14.0824C8.41947 15.423 9.33987 15.3034 10.4498 15.1592C11.0386 15.0827 11.6807 14.9993 12.2993 15.1231C13.156 15.294 13.2702 16.2084 13.3955 17.2112C13.4036 17.2761 13.4118 17.3417 13.4202 17.4071ZM21.6565 30.0541C22.2106 31.6572 22.8882 35.514 22.8882 35.514C22.8265 35.5183 22.7647 35.5227 22.703 35.5273C22.6694 33.202 21.3861 32.0535 20.3652 31.1398C19.8437 30.6732 19.3907 30.2678 19.2075 29.7981C18.6866 28.4581 17.9542 26.2363 18.869 24.4988C20.2491 26.7802 21.3682 29.2174 21.6565 30.0541ZM16.9108 21.6875C16.2079 20.8482 15.5036 20.2158 14.8566 19.9711C14.5005 19.8363 14.2386 19.6305 14.0427 19.3784C14.2122 20.626 14.9536 21.6223 16.1939 21.6265C16.4211 21.6276 16.6644 21.6479 16.9108 21.6875Z" fill="#02182E"/>
</svg>
