<svg width="50" height="85" viewBox="0 0 50 85" fill="none" xmlns="http://www.w3.org/2000/svg">
    <path fill-rule="evenodd" clip-rule="evenodd" d="M14.1869 18.4016C13.2443 18.0233 11.5077 18.4478 10.6329 19.1485C9.63181 19.953 9.02485 18.9428 8.37881 17.8675C8.20682 17.5813 8.03197 17.2903 7.84627 17.0278C6.96297 15.7795 5.38486 17.0186 4.73624 18.4169C4.34553 19.2593 3.27424 19.1392 2.31402 19.0316C1.68019 18.9606 1.09476 18.895 0.785418 19.1152C0.00744879 19.6671 -0.822263 22.1323 1.65948 22.825C3.01168 23.2032 3.1522 23.785 3.2892 24.3524C3.40384 24.827 3.51601 25.2916 4.3334 25.6181C5.39099 26.0416 5.94399 25.235 6.40597 24.561C6.7278 24.0916 7.00545 23.6865 7.37875 23.8067C7.77591 23.9345 7.73581 24.3278 7.68452 24.8307C7.61841 25.4791 7.53372 26.3096 8.34336 26.9887C9.78103 28.1944 11.361 26.9553 12.4734 26.0478C13.584 25.1402 16.2783 28.6186 17.8009 30.9356C19.3236 33.2526 21.7072 37.7742 21.7072 37.7742C17.2855 38.2825 13.1599 39.2492 10.758 39.9115C6.49489 41.0858 4.46958 43.0398 2.09687 47.1349C-0.27584 51.23 -0.296167 53.8823 1.37804 58.8219C5.10896 69.8255 18.0074 72.3908 22.2705 71.4295C26.5336 70.4682 31.1681 72.1852 32.0219 74.7485C32.8738 77.3138 40.0714 81.2588 42.2038 81.2588C44.3363 81.2588 49.0263 84.5705 49.0263 84.5705C49.0263 84.5705 47.8529 82.0052 44.9757 80.7236C42.0967 79.4419 38.0461 76.8785 36.7673 75.0616C35.4885 73.2446 35.276 69.8255 38.5801 67.2622C41.8842 64.6988 46.3616 58.9294 46.7867 50.4947C47.2135 42.0619 39.007 38.9503 31.8648 37.7742C30.2154 37.503 28.4296 37.4083 26.6058 37.4376C26.6087 37.2764 26.6044 36.9019 26.5817 36.1022C26.6929 35.4748 26.9558 34.6151 27.5263 33.4993C28.9307 30.7544 30.3942 30.5118 31.843 30.9063C33.1674 31.267 33.2656 30.6107 33.5099 28.9784C33.5329 28.8252 33.5571 28.6634 33.5837 28.493C33.8942 26.5075 34.0586 25.9259 35.6367 27.002C37.213 28.0781 39.7613 27.0279 39.2088 25.5573C38.6544 24.0867 40.1013 22.2976 41.0992 23.2107C42.0952 24.1219 44.3903 22.4457 43.9468 21.5678C43.5051 20.688 41.6129 19.3952 39.3584 19.8249C38.4983 19.9883 37.6093 20.3178 36.8498 20.5992C35.6203 21.0549 34.7303 21.3847 34.8514 20.6806C35.0491 19.5434 38.6156 17.3505 40.8626 17.6116C43.1097 17.8728 44.7063 16.88 44.0336 15.4946C43.7436 14.8988 43.3137 14.6349 42.9505 14.412C42.4693 14.1167 42.1053 13.8932 42.3391 13.0646C42.7475 11.6088 41.2858 9.68444 40.3582 9.86224C39.4287 10.0382 38.2552 11.0865 37.1058 12.27C36.5484 12.8422 35.9524 12.357 35.3074 11.8319C34.6202 11.2725 33.8774 10.6678 33.0663 11.2477C31.7204 12.2099 31.923 13.6849 32.0604 14.6847C32.0835 14.853 32.1048 15.0079 32.1165 15.1446C32.152 15.5588 31.6257 15.6748 31.002 15.8122C30.198 15.9893 29.2321 16.2021 29.0989 17.1356C28.9955 17.8651 29.3501 18.6224 29.6767 19.3197C30.0914 20.205 30.4609 20.9938 29.79 21.5067C29.3729 21.8244 28.8488 22.0135 28.3549 22.1917C27.4267 22.5266 26.6053 22.8229 26.8019 23.8626C26.9299 24.5403 27.2167 25.138 27.4771 25.6805C27.8294 26.4146 28.1332 27.0477 27.9291 27.641C27.8493 27.8732 27.657 28.0951 27.4004 28.3911C26.9098 28.957 26.1844 29.7939 25.5607 31.4923C25.2902 30.2582 25.1614 29.0508 25.5196 28.1039C25.983 26.8753 25.2644 26.4344 24.5666 26.0062C24.001 25.6591 23.449 25.3204 23.5516 24.5774C23.682 23.6418 23.6311 22.9045 23.5723 22.053C23.5269 21.3959 23.4768 20.6707 23.5017 19.734C23.5377 18.4247 23.0208 18.0506 22.4767 17.6568C22.1272 17.4039 21.7664 17.1428 21.5337 16.6206C21.2524 15.9883 22.1082 15.1942 23.0164 14.3516C24.0291 13.4119 25.1068 12.4119 24.7454 11.5086C24.3613 10.5474 23.698 10.5614 23.076 10.5745C22.5907 10.5848 22.1305 10.5945 21.8479 10.1399C21.5946 9.73328 21.6454 9.25951 21.7006 8.74531C21.7859 7.95027 21.8816 7.05857 20.8795 6.16891C19.9454 5.33955 18.814 6.05877 17.8609 6.66467C17.1304 7.12907 16.5046 7.52689 16.1526 7.1098C15.7566 6.64158 16.1764 6.03188 16.663 5.32519C17.1755 4.58103 17.762 3.72933 17.5478 2.82208C17.2052 1.37098 15.9099 1.66133 14.7567 1.91982C14.5042 1.97641 14.2586 2.03148 14.0312 2.06641C13.4016 2.16421 13.2438 1.80607 13.0457 1.35649C12.8462 0.903578 12.6057 0.357858 11.8008 0.0920193C10.7896 -0.243458 9.87714 0.401496 9.01682 1.00957C8.51396 1.36499 8.02893 1.70781 7.55244 1.83489C7.1635 1.93933 6.75893 1.97085 6.35303 2.00247C5.41284 2.07571 4.46546 2.14952 3.68847 3.13139C3.01752 3.97956 3.63005 4.87842 4.2173 5.74018C4.6021 6.30485 4.97604 6.85359 4.97092 7.36169C4.96512 7.93731 4.6536 8.19201 4.31449 8.46928C3.89635 8.81116 3.43625 9.18735 3.45563 10.2418C3.49074 12.1513 5.52899 12.2421 6.9685 11.9217C8.20308 11.6469 8.31497 12.4292 8.54328 14.0257C8.58118 14.2907 8.62229 14.5782 8.67227 14.887C8.90048 16.3041 9.87347 16.1777 11.0468 16.0252C11.6692 15.9444 12.348 15.8562 13.0019 15.9871C13.9076 16.1678 14.0284 17.1344 14.1608 18.1945C14.1693 18.2631 14.178 18.3324 14.1869 18.4016ZM22.8938 31.7711C23.4796 33.4658 24.1959 37.543 24.1959 37.543C24.1306 37.5475 24.0653 37.5522 24 37.557C23.9645 35.0988 22.6079 33.8848 21.5286 32.9189C20.9774 32.4256 20.4985 31.997 20.3049 31.5005C19.7541 30.0839 18.9799 27.7352 19.947 25.8984C21.406 28.3102 22.589 30.8867 22.8938 31.7711ZM17.8769 22.9265C17.1339 22.0393 16.3893 21.3707 15.7054 21.112C15.3289 20.9695 15.0521 20.752 14.845 20.4855C15.0241 21.8044 15.8079 22.8576 17.1191 22.8621C17.3593 22.8632 17.6165 22.8847 17.8769 22.9265Z" fill="#02182E" fill-opacity="0.8"/>
</svg>
